<svg width="38" height="38" viewBox="0 0 38 38" fill="none" xmlns="http://www.w3.org/2000/svg">
<path d="M22.1067 5.14291C24.5427 5.14291 26.5174 7.11766 26.5174 9.55363C26.5174 10.4284 26.2628 11.2436 25.8236 11.9294L29.2317 11.9286C30.1686 11.9286 30.9281 12.6881 30.9281 13.6251V18.3751C30.9281 19.1953 30.346 19.8796 29.5723 20.0373L29.571 27.8751C29.571 30.227 27.7301 32.149 25.4106 32.2788L25.1603 32.2858H12.2674C9.91546 32.2858 7.99345 30.4449 7.8637 28.1253L7.85672 27.8751L7.85678 20.0376C7.08242 19.8804 6.49957 19.1958 6.49957 18.3751V13.6251C6.49957 12.6881 7.25909 11.9286 8.196 11.9286L11.6041 11.9294C11.1649 11.2436 10.9103 10.4284 10.9103 9.55363C10.9103 7.11766 12.885 5.14291 15.321 5.14291C16.6857 5.14291 17.9056 5.76267 18.7146 6.73608C19.5221 5.76267 20.742 5.14291 22.1067 5.14291ZM17.696 20.0701H9.89243V27.8751C9.89243 29.1211 10.8521 30.1431 12.0726 30.2422L12.2674 30.2501H17.696V20.0701ZM27.5353 20.0701H19.7317V30.2501H25.1603C26.4064 30.2501 27.4283 29.2904 27.5274 28.0698L27.5353 27.8751V20.0701ZM17.696 13.9643H8.53529V18.0358L17.696 18.0344V13.9643ZM28.8924 18.0358V13.9643H19.7317V18.0344L28.8924 18.0358ZM22.1067 7.17863C20.795 7.17863 19.7317 8.24195 19.7317 9.55363V11.9273H22.1393L22.3015 11.9208C23.5221 11.8217 24.4817 10.7997 24.4817 9.55363C24.4817 8.24195 23.4184 7.17863 22.1067 7.17863ZM15.321 7.17863C14.0093 7.17863 12.946 8.24195 12.946 9.55363C12.946 10.7997 13.9057 11.8217 15.1262 11.9208L15.2884 11.9273H17.696V9.55363L17.6881 9.35884C17.589 8.13828 16.5671 7.17863 15.321 7.17863Z" fill="#C32727"/>
</svg>
